<?xml version="1.0" encoding="utf-8"?>
<!-- Generator: Adobe Illustrator 22.0.0, SVG Export Plug-In . SVG Version: 6.00 Build 0)  -->
<svg version="1.1" id="Layer_1" xmlns="http://www.w3.org/2000/svg" xmlns:xlink="http://www.w3.org/1999/xlink" x="0px" y="0px"
	 viewBox="0 0 872 476" style="enable-background:new 0 0 872 476;" xml:space="preserve">
<style type="text/css">
	.st0{fill:none;}
</style>
<image style="overflow:visible;enable-background:new    ;" width="357" height="229" xlink:href="87953EBB8B4BC4DF.png"  transform="matrix(1 0 0 1 0 247)">
</image>
<image style="overflow:visible;enable-background:new    ;" width="226" height="146" xlink:href="87953EBB8B4BC4DD.png"  transform="matrix(1 0 0 1 359 -1.464844e-05)">
</image>
<image style="overflow:visible;enable-background:new    ;" width="226" height="328" xlink:href="87953EBB8B4BC4E3.png"  transform="matrix(1 0 0 1 359 148)">
</image>
<image style="overflow:visible;enable-background:new    ;" width="285" height="190" xlink:href="87953EBB8B4BC4E5.png"  transform="matrix(1 0 0 1 587 95)">
</image>
<image style="overflow:visible;enable-background:new    ;" width="285" height="189" xlink:href="87953EBB8B4BC4E7.png"  transform="matrix(1 0 0 1 587 287)">
</image>
<rect y="247" class="st0" width="357" height="228.9"/>
<rect x="359" y="0" class="st0" width="226" height="144.9"/>
<rect x="359" y="149.9" class="st0" width="226" height="326"/>
<rect x="587" y="93.9" class="st0" width="286" height="191.1"/>
<rect x="587" y="287" class="st0" width="285" height="189"/>
</svg>
